<svg version="1.1" id="Layer_1" xmlns="http://www.w3.org/2000/svg" xmlns:xlink="http://www.w3.org/1999/xlink" x="0px" y="0px"
	 width="100%" viewBox="0 0 500 500" enable-background="new 0 0 500 500" xml:space="preserve">
<path fill="#000000" opacity="1.000000" stroke="none" 
	d="
M254.000000,501.000000 
	C170.666687,501.000000 87.833336,500.972931 5.000202,501.096008 
	C1.576010,501.101074 0.903036,500.423828 0.905301,497.000000 
	C1.013778,333.000092 1.013773,169.000122 0.905334,5.000241 
	C0.903071,1.576928 1.575812,0.903022 4.999882,0.905287 
	C168.999756,1.013774 332.999725,1.013761 496.999634,0.905353 
	C500.422668,0.903090 501.096985,1.575439 501.094727,4.999763 
	C500.986206,168.999649 500.986237,332.999603 501.094604,496.999512 
	C501.096893,500.422272 500.425507,501.101349 497.000275,501.096100 
	C416.166992,500.972198 335.333466,501.000000 254.000000,501.000000 
z"/>
<path fill="#FCFCFC" opacity="1.000000" stroke="none" 
	d="
M229.055389,343.000000 
	C229.058228,296.357941 229.114212,250.215744 228.969986,204.074158 
	C228.957550,200.093826 229.645004,198.761108 233.994919,198.782806 
	C273.306396,198.978943 312.619202,198.902481 351.931610,198.915848 
	C357.820251,198.917847 358.361755,199.612900 355.681458,204.982986 
	C350.715759,214.931854 342.944550,221.041138 331.438721,221.102615 
	C306.452972,221.236145 281.465576,221.307480 256.480774,221.132599 
	C252.134583,221.102188 250.977692,222.134140 251.002029,226.620483 
	C251.205307,264.099243 251.129700,301.579651 251.079712,339.059479 
	C251.060516,353.457916 243.776184,363.145447 229.055405,367.908783 
	C229.055405,359.624847 229.055405,351.562408 229.055389,343.000000 
z"/>
<path fill="#FBFAFB" opacity="1.000000" stroke="none" 
	d="
M294.000061,161.089966 
	C314.486389,161.089218 334.472717,161.080139 354.459045,161.093353 
	C359.761200,161.096863 359.959595,161.337357 358.038300,166.419647 
	C354.034027,177.011780 346.419617,183.320953 335.088318,184.139130 
	C326.971832,184.725204 318.784149,184.353394 310.628174,184.359344 
	C256.000336,184.399231 201.372299,184.373032 146.745026,184.566498 
	C142.782715,184.580521 141.979736,183.438126 142.214523,179.838989 
	C142.517349,175.196823 142.523193,170.497040 142.158737,165.861237 
	C141.845673,161.878860 143.198044,160.941406 147.100433,160.955612 
	C190.903336,161.115143 234.706970,161.077286 278.510406,161.091766 
	C283.506958,161.093430 288.503479,161.090683 294.000061,161.089966 
z"/>
<path fill="#FBF9FB" opacity="1.000000" stroke="none" 
	d="
M215.687592,329.987793 
	C215.585770,334.645508 215.743561,338.831360 215.336029,342.961395 
	C214.168121,354.797424 205.107407,364.761017 193.012299,367.580261 
	C193.012299,359.380676 193.013168,351.247864 193.012131,343.115051 
	C193.007126,303.977783 192.943909,264.840332 193.089523,225.703644 
	C193.103424,221.971802 192.263138,221.006622 188.480743,221.136169 
	C179.166290,221.455231 169.827866,221.389847 160.507690,221.147720 
	C148.901001,220.846176 141.949326,212.978485 142.381332,201.403610 
	C142.511505,197.915909 144.819901,198.904312 146.564789,198.900604 
	C162.719101,198.866287 178.873581,198.912094 195.028015,198.928787 
	C200.523819,198.934479 206.034256,199.164719 211.510193,198.833130 
	C214.997849,198.621964 215.767242,200.020737 215.696762,203.087982 
	C215.578201,208.246887 215.765259,213.412003 215.763016,218.574493 
	C215.746964,255.546463 215.715561,292.518433 215.687592,329.987793 
z"/>
<path fill="#FDFCFC" opacity="1.000000" stroke="none" 
	d="
M294.405212,254.817337 
	C294.739960,263.422821 294.926147,271.736023 294.945343,280.049622 
	C294.990326,299.527466 294.458618,319.022583 295.128143,338.477386 
	C295.571167,351.350250 285.543427,365.176544 273.017731,367.657532 
	C273.017731,326.703400 273.017731,285.836517 273.068787,244.506134 
	C275.023651,242.590286 276.682587,243.866837 278.092804,244.790070 
	C283.343109,248.227249 289.019623,250.950653 294.405212,254.817337 
z"/>
<path fill="#BBBDBE" opacity="1.000000" stroke="none" 
	d="
M294.755493,254.649384 
	C289.594696,253.798233 285.605591,250.511856 281.226685,247.970871 
	C278.806732,246.566635 276.572388,244.831924 273.474121,244.043030 
	C272.927795,236.346130 272.335358,237.292023 279.448944,237.344604 
	C284.490326,237.381882 291.214172,234.917999 294.105286,238.339310 
	C296.578857,241.266571 294.812439,247.778427 294.915253,252.704956 
	C294.925568,253.199295 294.893616,253.694519 294.755493,254.649384 
z"/>
</svg>